<svg height="85.333336" viewBox="0 0 85.333336 85.333336" width="85.333336" xmlns="http://www.w3.org/2000/svg"><g transform="matrix(.13333333 0 0 -.13333333 0 85.333333)"><path d="m638.332 320c0-176.73-143.269-320-320-320-176.73 0-319.99997 143.27-319.99997 320s143.26997 320 319.99997 320c176.731 0 320-143.27 320-320" fill="#7db6d8"/><path d="m500 140h-360c-11.047 0-20 8.953-20 20 0 3.645.973 7.059 2.676 10 3.457-5.977 9.922-10 17.324-10h360c7.402 0 13.867 4.023 17.324 10 1.703-2.941 2.676-6.355 2.676-10 0-11.047-8.953-20-20-20" fill="#6594b2"/><path d="m520 180c0-11.047-8.953-20-20-20h-360c-11.047 0-20 8.953-20 20s8.953 20 20 20h360c11.047 0 20-8.953 20-20" fill="#e08e4c"/><path d="m230 440h-40c-16.57 0-30-13.43-30-30v-170-10-30h30 40 30v30 10 170c0 16.57-13.43 30-30 30" fill="#c84755"/><path d="m450 480h-40c-16.57 0-30-13.43-30-30v-210-10-30h30 40 30v30 10 210c0 16.57-13.43 30-30 30" fill="#e1e3cc"/><path d="m160 370h100v30h-100z" fill="#e08e4c"/><path d="m160 240h100v30h-100z" fill="#e08e4c"/><path d="m380 240h100v30h-100z" fill="#fff"/><path d="m380 410h100v30h-100z" fill="#fff"/><path d="m400 200h-20v40h20v-10zm0 70h-20v140h20z" fill="#b7b7a7"/><path d="m380 240h20v30h-20z" fill="#d4d3d1"/><path d="m380 450v.043c0-.012 0-.027 0-.043m0 .059v.031c0-.012 0-.02 0-.031m0 .046v.028c0-.008 0-.02 0-.028m0 .047v.028c0-.012 0-.02 0-.028m0 .067v.011c0-.003 0-.007 0-.011m0 .043v.008c0-.004 0-.004 0-.008" fill="#6594b2"/><path d="m400 440h-20v10 .043.016.031.015.028.019.028.039.011.032.008c.117 12.925 8.457 23.789 20 27.894z" fill="#b7b7a7"/><path d="m380 410h20v30h-20z" fill="#d4d3d1"/><path d="m260 410v.043c0-.012 0-.027 0-.043m0 .059v.031c0-.012 0-.024 0-.031m0 .046v.028c0-.008 0-.02 0-.028m0 .043v.028c0-.008 0-.02 0-.028m0 .071v.011c0-.003 0-.007 0-.011m0 .043v.008s0-.004 0-.008" fill="#6594b2"/><path d="m260 200h-20v40h20v-10zm0 70h-20v100h20zm0 130h-20v38.164c11.543-4.105 19.883-14.969 20-27.894 0 0 0-.004 0-.008 0-.008 0-.02 0-.032 0-.003 0-.007 0-.011 0-.016 0-.028 0-.043 0-.008 0-.02 0-.028 0-.003 0-.007 0-.015 0-.012 0-.02 0-.028 0-.003 0-.011 0-.015 0-.012 0-.02 0-.031 0-.004 0-.008 0-.016 0-.012 0-.027 0-.043z" fill="#a43f4a"/><path d="m240 370h20v30h-20z" fill="#b77744"/><path d="m240 240h20v30h-20z" fill="#b77744"/><path d="m350 520h-60c-16.57 0-30-13.43-30-30v-250-10-30h30 60 30v30 10 250c0 16.57-13.43 30-30 30" fill="#495672"/><g fill="#77caa9"><path d="m380 450h-120v30h120z"/><path d="m380 240h-120v30h120z"/></g></g></svg>